# xmcd CD database file
#
# Track frame offsets:
#	150
#	10435
#	22582
#	38494
#	58067
#	73661
#	91667
#
# Disc length: 1794 seconds
#
# Revision: 0
# Processed by: cddbd v1.5.2PL0 Copyright (c) Steve Scherf et al.
# Submitted via: CDex 1.70beta2
#
DISCID=48070007
DTITLE=Olivier Caillard - Les tout petits loups du Jazz
DYEAR=2004
DGENRE=Jazz
TTITLE0=Les p'tits loups du jazz
TTITLE1=Mamadou, Casimir et Tintin
TTITLE2=Le bégonia
TTITLE3=Un petit poisson
TTITLE4=La fourmi
TTITLE5=l'otorhinocéros
TTITLE6=Le voyage
EXTD=YEAR: 2004
EXTT0=
EXTT1=
EXTT2=
EXTT3=
EXTT4=
EXTT5=
EXTT6=
PLAYORDER=
